HIERARCHY
ROOT SpineBase
{
  OFFSET 0.000000 0.000000 0.000000
  CHANNELS 6 Xposition Yposition Zposition Zrotation Xrotation Yrotation
  JOINT SpineMid
  {
    OFFSET 0.000000 29.816834 0.000000
    CHANNELS 3 Zrotation Xrotation Yrotation
    JOINT SpineShoulder
    {
      OFFSET -0.628686 22.210788 -0.818286
      CHANNELS 3 Zrotation Xrotation Yrotation
      JOINT Neck
      {
        OFFSET -0.330330 7.447243 -0.568977
        CHANNELS 3 Zrotation Xrotation Yrotation
        JOINT Head
        {
          OFFSET 3.154111 11.671766 2.304301
          CHANNELS 3 Zrotation Xrotation Yrotation
          End Site
          {
            OFFSET 0 0 0
          }
        }
      }
      JOINT ShoulderLeft
      {
        OFFSET -3.118219 -4.663554 -12.124323
        CHANNELS 3 Zrotation Xrotation Yrotation
        JOINT ElbowLeft
        {
          OFFSET 0.443637 -23.833461 -5.918440
          CHANNELS 3 Zrotation Xrotation Yrotation
          JOINT WristLeft
          {
            OFFSET 2.706138 -20.082687 -3.833146
            CHANNELS 3 Zrotation Xrotation Yrotation
            JOINT HandLeft
            {
              OFFSET 1.145962 -7.181338 -2.323649
              CHANNELS 3 Zrotation Xrotation Yrotation
              JOINT HandTipLeft
              {
                OFFSET 2.667970 -5.168574 -2.324810
                CHANNELS 3 Zrotation Xrotation Yrotation
                End Site
                {
                  OFFSET 0 0 0
                }
              }
              JOINT ThumbLeft
              {
                OFFSET -1.423685 -3.635804 -3.639220
                CHANNELS 3 Zrotation Xrotation Yrotation
                End Site
                {
                  OFFSET 0 0 0
                }
              }
            }
          }
        }
      }
      JOINT ShoulderRight
      {
        OFFSET 10.400966 0.309700 13.012289
        CHANNELS 3 Zrotation Xrotation Yrotation
        JOINT ElbowRight
        {
          OFFSET -9.758052 -18.887131 -19.400014
          CHANNELS 3 Zrotation Xrotation Yrotation
          JOINT WristRight
          {
            OFFSET 9.290955 -20.966398 14.045898
            CHANNELS 3 Zrotation Xrotation Yrotation
            JOINT HandRight
            {
              OFFSET 2.465669 -3.645560 -5.073789
              CHANNELS 3 Zrotation Xrotation Yrotation
              JOINT HandTipRight
              {
                OFFSET -0.112835 -0.585802 -0.717243
                CHANNELS 3 Zrotation Xrotation Yrotation
                End Site
                {
                  OFFSET 0 0 0
                }
              }
              JOINT ThumbRight
              {
                OFFSET -0.447242 0.288973 -1.259593
                CHANNELS 3 Zrotation Xrotation Yrotation
                End Site
                {
                  OFFSET 0 0 0
                }
              }
            }
          }
        }
      }
    }
  }
  JOINT HipLeft
  {
    OFFSET -3.314158 -0.036522 -6.669479
    CHANNELS 3 Zrotation Xrotation Yrotation
    JOINT KneeLeft
    {
      OFFSET -1.766354 -35.643677 -0.709712
      CHANNELS 3 Zrotation Xrotation Yrotation
      JOINT AnkleLeft
      {
        OFFSET -2.772665 -31.893521 4.236498
        CHANNELS 3 Zrotation Xrotation Yrotation
        JOINT FootLeft
        {
          OFFSET 8.054688 -3.044800 -7.069821
          CHANNELS 3 Zrotation Xrotation Yrotation
          End Site
          {
            OFFSET 0 0 0
          }
        }
      }
    }
  }
  JOINT HipRight
  {
    OFFSET 3.152440 1.950903 -0.001134
    CHANNELS 3 Zrotation Xrotation Yrotation
    JOINT KneeRight
    {
      OFFSET -0.534490 -30.682154 -17.015811
      CHANNELS 3 Zrotation Xrotation Yrotation
      JOINT AnkleRight
      {
        OFFSET -17.858943 -25.279243 24.437550
        CHANNELS 3 Zrotation Xrotation Yrotation
        JOINT FootRight
        {
          OFFSET 4.555368 -9.197075 -0.481424
          CHANNELS 3 Zrotation Xrotation Yrotation
          End Site
          {
            OFFSET 0 0 0
          }
        }
      }
    }
  }
}
MOTION
Frames: 12
Frame Time: 0.033333
10.198319 89.135676 313.892182 -0.000000 0.000000 -45.879972 -0.000000 0.000000 45.879972 -0.000000 0.000000 0.000000 -0.000000 0.000000 0.000000 0.000000 0.000000 0.000000 -0.000000 0.000000 0.000000 -0.000000 0.000000 0.000000 -0.000000 0.000000 0.000000 -0.000000 0.000000 0.000000 0.000000 0.000000 0.000000 0.000000 0.000000 0.000000 -0.000000 0.000000 0.000000 -0.000000 0.000000 0.000000 -0.000000 0.000000 0.000000 -0.000000 0.000000 0.000000 0.000000 0.000000 0.000000 0.000000 0.000000 0.000000 -0.000000 0.000000 45.879972 -0.000000 0.000000 0.000000 -0.000000 0.000000 0.000000 0.000000 0.000000 0.000000 -0.000000 0.000000 45.879972 -0.000000 0.000000 0.000000 -0.000000 0.000000 0.000000 0.000000 0.000000 0.000000
10.579189 89.032387 313.849126 0.512700 0.011200 -45.565411 -0.350946 -0.373932 45.564216 -0.000000 0.000000 0.000000 -0.000000 0.000000 0.000000 0.000000 0.000000 0.000000 -0.000000 0.000000 0.000000 -0.000000 0.000000 0.000000 -0.779419 -2.171340 -0.109898 0.775811 2.172632 0.080416 0.000000 0.000000 0.000000 0.000000 0.000000 0.000000 -0.000000 0.000000 0.000000 -0.000000 0.000000 0.000000 1.701344 -6.307104 -7.002940 4.006888 17.472142 -4.440958 0.000000 0.000000 0.000000 0.000000 0.000000 0.000000 -0.350946 -0.373932 45.564216 -0.000000 0.000000 0.000000 -0.000000 0.000000 0.000000 0.000000 0.000000 0.000000 0.305607 -1.972752 45.986798 0.693709 1.583026 -0.418721 -1.207828 4.315541 2.254295 0.000000 0.000000 0.000000
10.907884 88.949263 313.824654 0.944430 0.013073 -45.392652 -0.653946 -0.681539 45.388654 -0.000000 0.000000 0.000000 -0.000000 0.000000 0.000000 0.000000 0.000000 0.000000 -0.000000 0.000000 0.000000 -0.000000 0.000000 0.000000 -1.440608 -4.006050 -0.226774 0.152800 4.423770 1.010326 0.000000 0.000000 0.000000 0.000000 0.000000 0.000000 -0.000000 0.000000 0.000000 -0.000000 0.000000 0.000000 2.428950 -11.596345 -12.554647 5.247495 29.199641 -6.967766 0.000000 0.000000 0.000000 0.000000 0.000000 0.000000 -0.653946 -0.681539 45.388654 -0.000000 0.000000 0.000000 -0.000000 0.000000 0.000000 0.000000 0.000000 0.000000 0.575709 -3.500490 46.127727 1.675352 3.724197 -0.915898 -2.988143 7.158886 4.454095 0.000000 0.000000 0.000000
11.184404 88.886302 313.818766 1.296172 0.005666 -45.371292 -0.906621 -0.926393 45.363898 -0.000000 0.000000 0.000000 0.099358 0.870117 -0.255187 0.000000 0.000000 0.000000 -0.000000 0.000000 0.000000 -0.000000 0.000000 0.000000 -1.985504 -5.513060 -0.339755 -0.002075 6.428748 1.710661 0.000000 0.000000 0.000000 0.000000 0.000000 0.000000 -0.000000 0.000000 0.000000 -0.000000 0.000000 0.000000 2.485473 -14.877397 -15.811382 5.778836 35.758396 -8.627275 0.000000 0.000000 0.000000 0.000000 0.000000 0.000000 -1.535071 -1.770325 45.377080 1.042008 0.145485 -0.029293 -0.000000 0.000000 0.000000 0.000000 0.000000 0.000000 0.821456 -4.594439 46.305684 2.218683 5.126586 -1.216675 -4.557994 9.857732 6.370535 0.000000 0.000000 0.000000
11.408750 88.843505 313.831463 1.568702 -0.011001 -45.506132 -1.107382 -1.111218 45.495544 -0.000000 0.000000 0.000000 -0.026189 0.950524 -0.251056 0.000000 0.000000 0.000000 -0.000000 0.000000 0.000000 0.842561 0.251242 -0.128632 -3.244431 -6.960654 -0.325291 -0.314310 8.312827 2.553769 0.000000 0.000000 0.000000 0.000000 0.000000 0.000000 -0.000000 0.000000 0.000000 -0.000000 0.000000 0.000000 2.237665 -15.713914 -16.330235 7.163878 37.651753 -10.630275 0.000000 0.000000 0.000000 0.000000 0.000000 0.000000 -1.850297 -2.227609 45.512643 0.980149 1.088904 -0.155304 0.339020 -0.835721 0.120075 0.000000 0.000000 0.000000 1.049852 -5.265794 46.520998 2.562920 6.239836 -1.401423 -6.115540 12.001432 8.061380 0.000000 0.000000 0.000000
11.580920 88.820872 313.862745 1.762580 -0.036935 -45.796649 -1.255548 -1.237699 45.783655 -0.000000 0.000000 0.000000 -0.231367 0.927166 -0.202573 0.000000 0.000000 0.000000 -0.000000 0.000000 0.000000 0.870883 0.214582 -0.138751 -3.586757 -7.807013 -0.395725 -0.788033 10.087527 3.546481 0.000000 0.000000 0.000000 0.000000 0.000000 0.000000 -0.000000 0.000000 0.000000 -0.000000 0.000000 0.000000 1.802900 -14.083896 -14.070164 9.608956 35.057920 -13.110212 0.000000 0.000000 0.000000 0.000000 0.000000 0.000000 -2.061654 -2.623896 45.806740 1.251934 1.449836 -0.183516 0.307119 -1.060636 0.135712 0.000000 0.000000 0.000000 1.263032 -5.524587 46.770040 2.707191 7.074846 -1.465277 -7.627738 13.630821 9.518430 0.000000 0.000000 0.000000
11.370252 88.892796 313.941183 1.374652 -0.108677 -45.869173 -1.035245 -0.910953 45.862246 -0.000000 0.000000 0.000000 -0.540514 0.822544 -0.111392 0.000000 0.000000 0.000000 -0.000000 0.000000 0.000000 -0.000000 0.000000 0.000000 -2.596883 -8.084451 -0.652633 -2.152201 12.394939 5.432493 0.000000 0.000000 0.000000 0.000000 0.000000 0.000000 -0.000000 0.000000 0.000000 -0.000000 0.000000 0.000000 0.381542 -11.245099 -9.367946 11.934536 26.240737 -14.026673 0.000000 0.000000 0.000000 0.000000 0.000000 0.000000 -1.375110 -2.324072 45.914222 1.057306 2.142975 -0.213033 0.319140 -1.018366 0.882797 0.000000 0.000000 0.000000 2.967587 -5.161196 46.336433 2.171503 9.173237 -1.151812 -9.248194 15.438219 11.415694 0.000000 0.000000 0.000000
11.321233 88.748985 313.988336 1.256976 -0.119417 -46.558553 -0.951072 -0.830525 46.552969 -0.000000 0.000000 0.000000 -0.900070 0.575135 0.026712 0.000000 0.000000 0.000000 -0.000000 0.000000 0.000000 -0.000000 0.000000 0.000000 -2.700637 -8.749936 -0.753110 -1.541363 15.657655 6.548348 0.000000 0.000000 0.000000 0.000000 0.000000 0.000000 -0.000000 0.000000 0.000000 -0.000000 0.000000 0.000000 0.790519 -5.068855 -4.764490 4.641624 12.651116 -4.654380 0.000000 0.000000 0.000000 0.000000 0.000000 0.000000 -1.194162 -2.458561 46.619570 1.290958 2.503931 -0.227169 0.255110 -1.107432 0.898692 0.000000 0.000000 0.000000 2.891610 -3.786219 46.515961 1.642141 8.748322 -0.780343 -11.838610 17.185000 13.314160 0.000000 0.000000 0.000000
11.455297 88.920024 314.101619 1.386755 -0.202444 -47.409694 -1.087589 -0.883917 47.403754 -0.000000 0.000000 0.000000 -1.312295 0.202175 0.206063 0.000000 0.000000 0.000000 -0.000000 0.000000 0.000000 -0.000000 0.000000 0.000000 -3.035141 -9.054494 -0.727672 -1.926368 16.365592 7.182030 0.000000 0.000000 0.000000 0.000000 0.000000 0.000000 -0.000000 0.000000 0.000000 -0.000000 0.000000 0.000000 -2.169941 -0.352369 2.823108 4.005012 -6.088926 -4.249081 0.000000 0.000000 0.000000 0.000000 0.000000 0.000000 -1.505072 -2.774839 47.471935 1.721156 2.635906 -0.236572 0.193948 -1.143788 0.968300 0.000000 0.000000 0.000000 2.159886 -2.340249 46.921680 0.994770 7.353708 -0.326738 -13.488897 16.793017 13.464738 0.000000 0.000000 0.000000
11.745453 89.119950 314.227930 1.736090 -0.285108 -48.150470 -1.370765 -1.102954 48.141595 -0.000000 0.000000 0.000000 -1.945841 -0.281231 0.453553 0.000000 0.000000 0.000000 -0.815884 0.210493 0.207957 0.815121 -0.213432 -0.204940 -3.353669 -8.796525 -0.596675 -3.892059 15.217973 8.108418 0.000000 0.000000 0.000000 0.000000 0.000000 0.000000 -0.000000 0.000000 0.000000 -0.000000 0.000000 0.000000 -4.232020 1.091890 6.742931 2.685269 -23.835151 -3.319693 0.000000 0.000000 0.000000 0.000000 0.000000 0.000000 -2.126328 -3.303927 48.200091 2.266203 2.604928 -0.240665 0.145058 -1.122562 1.046357 0.000000 0.000000 0.000000 0.371499 -1.940060 47.919353 1.448397 5.530347 -0.534851 -13.519206 15.721085 12.671619 0.000000 0.000000 0.000000
12.164238 89.095261 314.373530 2.255414 -0.376851 -49.340345 -1.755670 -1.465309 49.325310 -0.000000 0.000000 0.000000 -2.672127 -0.760931 0.711963 0.000000 0.000000 0.000000 -0.933810 0.201198 0.237210 0.932975 -0.205036 -0.233901 -4.280866 -7.668538 -0.130388 -8.202563 9.582436 8.386285 0.000000 0.000000 0.000000 0.000000 0.000000 0.000000 -0.000000 0.000000 0.000000 -0.000000 0.000000 0.000000 -6.191122 5.540601 12.249962 -2.240325 -34.263965 -5.437923 0.000000 0.000000 0.000000 0.000000 0.000000 0.000000 -2.730743 -4.200258 49.382739 2.956835 2.735081 -0.253900 -0.013038 -1.089682 1.176744 0.000000 0.000000 0.000000 -3.342915 -2.080524 50.091320 3.020346 1.907118 -1.337006 -10.166408 12.661648 9.674648 0.000000 0.000000 0.000000
12.705109 89.327193 314.570889 2.912645 -0.559690 -48.794392 -1.620293 -1.345859 48.815537 -0.832658 0.227663 -0.022585 -3.173365 -1.190219 0.910375 0.000000 0.000000 0.000000 -1.000691 0.180975 0.253393 0.835123 -1.054119 -0.338561 -5.274733 -5.660227 0.593260 -10.771534 5.970892 8.365502 0.000000 0.000000 0.000000 0.000000 0.000000 0.000000 -0.000000 0.000000 0.000000 -0.000000 0.000000 0.000000 -5.392510 2.905114 9.557642 -4.414098 -24.292091 2.201155 0.000000 0.000000 0.000000 0.000000 0.000000 0.000000 -4.139534 -4.840378 48.767197 3.773318 2.394605 -0.239437 -0.109612 -1.113352 1.330832 0.000000 0.000000 0.000000 -5.845446 -3.750187 50.647885 4.447552 0.912650 -3.103943 -6.708278 10.271391 8.334065 0.000000 0.000000 0.000000
